<svg width="203" height="42" viewBox="0 0 203 42" fill="none" xmlns="http://www.w3.org/2000/svg">
<path d="M105.186 0V41.7225H98.5264V0H105.186V0Z" fill="black"/>
<path d="M105.186 0V41.7225H98.5264V0H105.186V0Z" fill="black"/>
<path d="M75.2378 42H83.3841L69.7475 24.2209C72.6809 23.6263 75.0396 22.2587 76.8234 20.1379C78.6073 18.0171 79.4992 15.48 79.4992 12.5267C79.4992 8.741 78.0721 5.70844 75.218 3.38943C72.6215 1.30826 68.4195 0.277588 62.5922 0.277588H54.8027V12.4276L67.151 31.0194L75.2378 42ZM61.4426 6.18415H63.8211C69.9457 6.18415 73.0179 8.32477 73.0179 12.5862C73.0179 17.145 69.8664 19.4243 63.5634 19.4243H61.4426V6.18415Z" fill="black"/>
<path d="M75.2378 42H83.3841L69.7475 24.2209C72.6809 23.6263 75.0396 22.2587 76.8234 20.1379C78.6073 18.0171 79.4992 15.48 79.4992 12.5267C79.4992 8.741 78.0721 5.70844 75.218 3.38943C72.6215 1.30826 68.4195 0.277588 62.5922 0.277588H54.8027V12.4276L67.151 31.0194L75.2378 42ZM61.4426 6.18415H63.8211C69.9457 6.18415 73.0179 8.32477 73.0179 12.5862C73.0179 17.145 69.8664 19.4243 63.5634 19.4243H61.4426V6.18415Z" fill="black"/>
<path d="M18.6113 21.1088V27.0351H29.6118C29.3145 29.9686 27.8478 32.4858 25.2513 34.5868C25.1125 34.7057 24.9738 34.8048 24.835 34.9039L29.0172 39.6014C30.0082 38.8681 30.9398 38.0356 31.8119 37.104C33.6156 35.1616 34.9039 33.0606 35.6571 30.8407C36.4301 28.4226 36.8265 25.6477 36.8265 22.516V21.1286H18.6113V21.1088Z" fill="black"/>
<path d="M5.17319 10.7824C8.32467 7.73006 12.2492 6.22368 16.907 6.22368C22.1 6.22368 26.5002 8.50307 30.1274 13.0618L34.8645 8.76072C32.1095 5.7678 29.2949 3.62719 26.4407 2.2992C23.4478 0.97122 20.2369 0.317139 16.7881 0.317139C10.3662 0.317139 4.93533 2.43794 0.455866 6.65974C0.297301 6.79848 0.158565 6.95705 0 7.11562L4.18216 11.8131C4.49929 11.4563 4.83624 11.1194 5.17319 10.7824Z" fill="black"/>
<path d="M18.6115 21.1087V27.0351H29.612C29.3147 29.9685 27.848 32.4858 25.2515 34.5868C25.1127 34.7057 24.974 34.8048 24.8352 34.9039L29.0174 39.6014C30.0084 38.868 30.94 38.0355 31.8121 37.104C33.6158 35.1615 34.9041 33.0606 35.6573 30.8407C36.4303 28.4225 36.8267 25.6476 36.8267 22.516V21.1285H18.6115V21.1087Z" fill="black"/>
<path d="M5.17319 10.7824C8.32467 7.73006 12.2492 6.22368 16.907 6.22368C22.1 6.22368 26.5002 8.50307 30.1274 13.0618L34.8645 8.76072C32.1095 5.76781 29.2949 3.62719 26.4407 2.2992C23.4478 0.97122 20.2369 0.317139 16.7881 0.317139C10.3662 0.317139 4.93533 2.43794 0.455866 6.65974C0.297301 6.79848 0.158565 6.95705 0 7.11562L4.18216 11.8131C4.49929 11.4563 4.83624 11.1194 5.17319 10.7824Z" fill="black"/>
<path d="M124.335 0.277588V26.7778L130.975 36.7872V22.1398H145.801V16.2134H130.975V6.18415H145.801V0.277588H124.335Z" fill="black"/>
<path d="M124.335 0.277588V26.7778L130.975 36.7872V22.1398H145.801V16.2134H130.975V6.18415H145.801V0.277588H124.335Z" fill="black"/>
<path d="M186.868 6.18415V0.277588H164.867V26.7778L171.507 36.7872V22.1398H186.333V16.2134H171.507V6.18415H186.868Z" fill="black"/>
<path d="M186.868 6.18415V0.277588H164.867V26.7778L171.507 36.7872V22.1398H186.333V16.2134H171.507V6.18415H186.868Z" fill="black"/>
</svg>
